<svg xmlns="http://www.w3.org/2000/svg" xmlns:xlink="http://www.w3.org/1999/xlink" width="500" zoomAndPan="magnify" viewBox="0 0 375 374.999991" height="500" preserveAspectRatio="xMidYMid meet" version="1.0"><defs><clipPath id="06fa59a409"><path d="M 54.355469 54.355469 L 320.644531 54.355469 L 320.644531 320.644531 L 54.355469 320.644531 Z M 54.355469 54.355469 " clip-rule="nonzero"/></clipPath><clipPath id="a64c878272"><path d="M 187.5 54.355469 C 113.96875 54.355469 54.355469 113.96875 54.355469 187.5 C 54.355469 261.03125 113.96875 320.644531 187.5 320.644531 C 261.03125 320.644531 320.644531 261.03125 320.644531 187.5 C 320.644531 113.96875 261.03125 54.355469 187.5 54.355469 Z M 187.5 54.355469 " clip-rule="nonzero"/></clipPath><clipPath id="0b0d12cffb"><path d="M 113 110.117188 L 262 110.117188 L 262 297 L 113 297 Z M 113 110.117188 " clip-rule="nonzero"/></clipPath><clipPath id="305f5c2c21"><path d="M 171 287 L 204 287 L 204 320.4375 L 171 320.4375 Z M 171 287 " clip-rule="nonzero"/></clipPath></defs><rect x="-37.5" width="450" fill="#ffffff" y="-37.499999" height="449.999989" fill-opacity="1"/><rect x="-37.5" width="450" fill="#fff6ea" y="-37.499999" height="449.999989" fill-opacity="1"/><g clip-path="url(#06fa59a409)"><g clip-path="url(#a64c878272)"><path fill="#fab728" d="M 54.355469 54.355469 L 320.644531 54.355469 L 320.644531 320.644531 L 54.355469 320.644531 Z M 54.355469 54.355469 " fill-opacity="1" fill-rule="nonzero"/></g></g><g clip-path="url(#0b0d12cffb)"><path fill="#242520" d="M 234.632812 128.222656 C 234.632812 128.222656 230.78125 125.105469 227.328125 122.828125 C 212.925781 113.3125 199.472656 110.082031 187.492188 110.3125 C 175.511719 110.082031 162.058594 113.3125 147.65625 122.828125 C 144.199219 125.105469 140.351562 128.222656 140.351562 128.222656 C 89.386719 172.671875 123.757812 226.789062 146.316406 250.804688 C 147.371094 251.917969 148.386719 252.976562 149.34375 253.957031 C 154.566406 259.886719 165.109375 274.125 169.371094 296.375 L 205.621094 296.375 C 209.863281 274.125 220.414062 259.886719 225.636719 253.957031 C 226.605469 252.976562 227.609375 251.917969 228.667969 250.804688 C 251.222656 226.789062 285.597656 172.671875 234.632812 128.222656 " fill-opacity="1" fill-rule="nonzero"/></g><path stroke-linecap="round" transform="matrix(0.109019, 0, 0, -0.109019, -44.283494, 447.203347)" fill="none" stroke-linejoin="round" d="M 1922.813082 1988.79501 C 1922.813082 1988.79501 2034.282949 1870.803924 2008.090576 1531.987125 " stroke="#e8e8e8" stroke-width="40" stroke-opacity="1" stroke-miterlimit="10"/><path stroke-linecap="round" transform="matrix(0.109019, 0, 0, -0.109019, -44.283494, 447.203347)" fill="none" stroke-linejoin="round" d="M 2309.607429 1988.79501 C 2309.607429 1988.79501 2186.815004 1868.188269 2213.294024 1531.987125 " stroke="#e8e8e8" stroke-width="40" stroke-opacity="1" stroke-miterlimit="10"/><g clip-path="url(#305f5c2c21)"><path fill="#242520" d="M 203.964844 303.808594 C 203.964844 313.054688 196.59375 320.554688 187.492188 320.554688 C 178.398438 320.554688 171.019531 313.054688 171.019531 303.808594 C 171.019531 294.566406 178.398438 287.066406 187.492188 287.066406 C 196.59375 287.066406 203.964844 294.566406 203.964844 303.808594 " fill-opacity="1" fill-rule="nonzero"/></g><path fill="#242520" d="M 215.945312 295.90625 C 215.945312 298.4375 213.894531 300.484375 211.367188 300.484375 L 164.042969 300.484375 C 161.511719 300.484375 159.453125 298.4375 159.453125 295.90625 C 159.453125 293.378906 161.511719 291.316406 164.042969 291.316406 L 211.367188 291.316406 C 213.894531 291.316406 215.945312 293.378906 215.945312 295.90625 " fill-opacity="1" fill-rule="nonzero"/><path fill="#242520" d="M 215.945312 287.390625 C 215.945312 289.921875 213.894531 291.972656 211.367188 291.972656 L 164.042969 291.972656 C 161.511719 291.972656 159.453125 289.921875 159.453125 287.390625 C 159.453125 284.851562 161.511719 282.800781 164.042969 282.800781 L 211.367188 282.800781 C 213.894531 282.800781 215.945312 284.851562 215.945312 287.390625 " fill-opacity="1" fill-rule="nonzero"/><path fill="#242520" d="M 215.945312 279.933594 C 215.945312 282.464844 213.894531 284.515625 211.367188 284.515625 L 164.042969 284.515625 C 161.511719 284.515625 159.453125 282.464844 159.453125 279.933594 C 159.453125 277.40625 161.511719 275.355469 164.042969 275.355469 L 211.367188 275.355469 C 213.894531 275.355469 215.945312 277.40625 215.945312 279.933594 " fill-opacity="1" fill-rule="nonzero"/><path fill="#242520" d="M 215.945312 304.269531 C 215.945312 306.796875 213.894531 308.847656 211.367188 308.847656 L 164.042969 308.847656 C 161.511719 308.847656 159.453125 306.796875 159.453125 304.269531 C 159.453125 301.738281 161.511719 299.679688 164.042969 299.679688 L 211.367188 299.679688 C 213.894531 299.679688 215.945312 301.738281 215.945312 304.269531 " fill-opacity="1" fill-rule="nonzero"/><path fill="#ffffff" d="M 199.800781 139.3125 C 202.6875 139.3125 205.273438 140.566406 206.960938 142.539062 C 208.097656 142.199219 209.285156 142.015625 210.539062 142.015625 C 216.554688 142.015625 221.441406 146.203125 221.441406 151.367188 C 221.441406 151.457031 221.429688 151.542969 221.417969 151.621094 C 224.644531 153.046875 226.847656 155.914062 226.847656 159.230469 C 226.847656 161.070312 226.160156 162.773438 225.015625 164.167969 C 228.078125 166.238281 230.050781 169.433594 230.050781 173.042969 C 230.050781 174.929688 229.507812 176.695312 228.570312 178.253906 C 233.726562 180.488281 237.269531 185.078125 237.269531 190.386719 C 237.269531 195.554688 233.921875 200.046875 228.984375 202.347656 C 229.671875 203.71875 230.050781 205.222656 230.050781 206.816406 C 230.050781 210.011719 228.492188 212.898438 226.007812 214.960938 C 226.542969 216.007812 226.847656 217.171875 226.847656 218.394531 C 226.847656 221.96875 224.285156 225.035156 220.644531 226.308594 C 221.15625 227.386719 221.441406 228.566406 221.441406 229.808594 C 221.441406 234.976562 216.554688 239.164062 210.539062 239.164062 C 208.773438 239.164062 207.105469 238.792969 205.621094 238.148438 C 204.03125 239.371094 202 240.101562 199.800781 240.101562 C 194.6875 240.101562 190.53125 236.1875 190.53125 231.355469 L 190.53125 148.054688 C 190.53125 143.226562 194.6875 139.3125 199.800781 139.3125 " fill-opacity="1" fill-rule="nonzero"/><path stroke-linecap="round" transform="matrix(0.109019, 0, 0, -0.109019, -44.283494, 447.203347)" fill="none" stroke-linejoin="round" d="M 2304.411951 2785.602113 C 2304.411951 2785.602113 2341.102772 2749.412925 2295.490062 2713.187905 " stroke="#facba1" stroke-width="20" stroke-opacity="1" stroke-miterlimit="10"/><path stroke-linecap="round" transform="matrix(0.109019, 0, 0, -0.109019, -44.283494, 447.203347)" fill="none" stroke-linejoin="round" d="M 2308.496671 1999.79509 C 2308.496671 1999.79509 2341.317757 1960.488615 2292.193621 1928.599133 " stroke="#facba1" stroke-width="20" stroke-opacity="1" stroke-miterlimit="10"/><path stroke-linecap="round" transform="matrix(0.109019, 0, 0, -0.109019, -44.283494, 447.203347)" fill="none" stroke-linejoin="round" d="M 2427.598515 2713.79703 C 2427.598515 2713.79703 2389.187812 2735.582205 2363.604564 2708.314906 " stroke="#facba1" stroke-width="20" stroke-opacity="1" stroke-miterlimit="10"/><path stroke-linecap="round" transform="matrix(0.109019, 0, 0, -0.109019, -44.283494, 447.203347)" fill="none" stroke-linejoin="round" d="M 2473.211225 2136.382404 C 2464.790969 2151.610528 2447.986286 2167.017806 2415.093538 2169.490137 " stroke="#facba1" stroke-width="20" stroke-opacity="1" stroke-miterlimit="10"/><path stroke-linecap="round" transform="matrix(0.109019, 0, 0, -0.109019, -44.283494, 447.203347)" fill="none" stroke-linejoin="round" d="M 2557.987087 2286.298805 C 2557.987087 2286.298805 2497.504562 2197.008252 2385.891372 2265.301909 " stroke="#facba1" stroke-width="20" stroke-opacity="1" stroke-miterlimit="10"/><path stroke-linecap="round" transform="matrix(0.109019, 0, 0, -0.109019, -44.283494, 447.203347)" fill="none" stroke-linejoin="round" d="M 2430.393324 1962.602637 C 2430.393324 1962.602637 2465.113447 2034.586875 2368.29841 2087.294099 " stroke="#facba1" stroke-width="20" stroke-opacity="1" stroke-miterlimit="10"/><path stroke-linecap="round" transform="matrix(0.109019, 0, 0, -0.109019, -44.283494, 447.203347)" fill="none" stroke-linejoin="round" d="M 2511.514436 2544.101984 C 2511.514436 2544.101984 2486.791129 2636.617315 2368.29841 2596.809208 " stroke="#facba1" stroke-width="20" stroke-opacity="1" stroke-miterlimit="10"/><path stroke-linecap="round" transform="matrix(0.109019, 0, 0, -0.109019, -44.283494, 447.203347)" fill="none" stroke-linejoin="round" d="M 2482.204776 2446.785315 C 2482.204776 2446.785315 2450.60194 2411.814376 2398.682996 2430.195617 " stroke="#facba1" stroke-width="20" stroke-opacity="1" stroke-miterlimit="10"/><path fill="#ffffff" d="M 175.195312 139.3125 C 172.292969 139.3125 169.710938 140.566406 168.007812 142.539062 C 166.898438 142.199219 165.699219 142.015625 164.445312 142.015625 C 158.425781 142.015625 153.542969 146.203125 153.542969 151.367188 C 153.542969 151.457031 153.554688 151.542969 153.5625 151.621094 C 150.335938 153.046875 148.136719 155.914062 148.136719 159.230469 C 148.136719 161.070312 148.8125 162.773438 149.964844 164.167969 C 146.902344 166.238281 144.929688 169.433594 144.929688 173.042969 C 144.929688 174.929688 145.464844 176.695312 146.414062 178.253906 C 141.257812 180.488281 137.714844 185.078125 137.714844 190.386719 C 137.714844 195.554688 141.058594 200.046875 146 202.347656 C 145.3125 203.71875 144.929688 205.222656 144.929688 206.816406 C 144.929688 210.011719 146.488281 212.898438 148.976562 214.960938 C 148.441406 216.007812 148.136719 217.171875 148.136719 218.394531 C 148.136719 221.96875 150.695312 225.035156 154.339844 226.308594 C 153.835938 227.386719 153.542969 228.566406 153.542969 229.808594 C 153.542969 234.976562 158.425781 239.164062 164.445312 239.164062 C 166.210938 239.164062 167.878906 238.792969 169.359375 238.148438 C 170.953125 239.371094 172.980469 240.101562 175.195312 240.101562 C 180.296875 240.101562 184.4375 236.1875 184.4375 231.355469 L 184.4375 148.054688 C 184.4375 143.226562 180.296875 139.3125 175.195312 139.3125 " fill-opacity="1" fill-rule="nonzero"/><path stroke-linecap="round" transform="matrix(0.109019, 0, 0, -0.109019, -44.283494, 447.203347)" fill="none" stroke-linejoin="round" d="M 1947.608051 2785.602113 C 1947.608051 2785.602113 1910.988892 2749.412925 1956.601602 2713.187905 " stroke="#facba1" stroke-width="20" stroke-opacity="1" stroke-miterlimit="10"/><path stroke-linecap="round" transform="matrix(0.109019, 0, 0, -0.109019, -44.283494, 447.203347)" fill="none" stroke-linejoin="round" d="M 1943.4875 1999.79509 C 1943.4875 1999.79509 1910.702245 1960.488615 1959.79055 1928.599133 " stroke="#facba1" stroke-width="20" stroke-opacity="1" stroke-miterlimit="10"/><path stroke-linecap="round" transform="matrix(0.109019, 0, 0, -0.109019, -44.283494, 447.203347)" fill="none" stroke-linejoin="round" d="M 1824.493148 2713.79703 C 1824.493148 2713.79703 1862.796359 2735.582205 1888.415438 2708.314906 " stroke="#facba1" stroke-width="20" stroke-opacity="1" stroke-miterlimit="10"/><path stroke-linecap="round" transform="matrix(0.109019, 0, 0, -0.109019, -44.283494, 447.203347)" fill="none" stroke-linejoin="round" d="M 1778.808777 2136.382404 C 1787.193203 2151.610528 1803.890393 2167.017806 1836.890633 2169.490137 " stroke="#facba1" stroke-width="20" stroke-opacity="1" stroke-miterlimit="10"/><path stroke-linecap="round" transform="matrix(0.109019, 0, 0, -0.109019, -44.283494, 447.203347)" fill="none" stroke-linejoin="round" d="M 1693.889592 2286.298805 C 1693.889592 2286.298805 1754.51544 2197.008252 1866.200292 2265.301909 " stroke="#facba1" stroke-width="20" stroke-opacity="1" stroke-miterlimit="10"/><path stroke-linecap="round" transform="matrix(0.109019, 0, 0, -0.109019, -44.283494, 447.203347)" fill="none" stroke-linejoin="round" d="M 1821.590847 1962.602637 C 1821.590847 1962.602637 1786.906556 2034.586875 1883.685762 2087.294099 " stroke="#facba1" stroke-width="20" stroke-opacity="1" stroke-miterlimit="10"/><path stroke-linecap="round" transform="matrix(0.109019, 0, 0, -0.109019, -44.283494, 447.203347)" fill="none" stroke-linejoin="round" d="M 1740.505566 2544.101984 C 1740.505566 2544.101984 1765.193043 2636.617315 1883.685762 2596.809208 " stroke="#facba1" stroke-width="20" stroke-opacity="1" stroke-miterlimit="10"/><path stroke-linecap="round" transform="matrix(0.109019, 0, 0, -0.109019, -44.283494, 447.203347)" fill="none" stroke-linejoin="round" d="M 1769.815226 2446.785315 C 1769.815226 2446.785315 1801.382231 2411.814376 1853.301176 2430.195617 " stroke="#facba1" stroke-width="20" stroke-opacity="1" stroke-miterlimit="10"/><path stroke-linecap="round" transform="matrix(0.109019, 0, 0, -0.109019, -44.283494, 447.203347)" fill="none" stroke-linejoin="round" d="M 2126.010001 2942.68469 L 2126.010001 2855.185681 " stroke="#f58611" stroke-width="40" stroke-opacity="1" stroke-miterlimit="10"/><path stroke-linecap="round" transform="matrix(0.109019, 0, 0, -0.109019, -44.283494, 447.203347)" fill="none" stroke-linejoin="round" d="M 1590.517504 2567.212901 L 1678.016512 2567.212901 " stroke="#f58611" stroke-width="40" stroke-opacity="1" stroke-miterlimit="10"/><path stroke-linecap="round" transform="matrix(0.109019, 0, 0, -0.109019, -44.283494, 447.203347)" fill="none" stroke-linejoin="round" d="M 1708.687745 2828.312522 L 1771.21263 2767.113379 " stroke="#f58611" stroke-width="40" stroke-opacity="1" stroke-miterlimit="10"/><path stroke-linecap="round" transform="matrix(0.109019, 0, 0, -0.109019, -44.283494, 447.203347)" fill="none" stroke-linejoin="round" d="M 2662.899902 2567.212901 L 2575.400894 2567.212901 " stroke="#f58611" stroke-width="40" stroke-opacity="1" stroke-miterlimit="10"/><path stroke-linecap="round" transform="matrix(0.109019, 0, 0, -0.109019, -44.283494, 447.203347)" fill="none" stroke-linejoin="round" d="M 2544.69383 2828.312522 L 2482.204776 2767.113379 " stroke="#f58611" stroke-width="40" stroke-opacity="1" stroke-miterlimit="10"/><path stroke-linecap="round" transform="matrix(0.109019, 0, 0, -0.109019, -44.283494, 447.203347)" fill="none" stroke-linejoin="round" d="M 2135.684339 1201.303936 C 2135.684339 1201.303936 2186.313372 1210.01084 2219.994399 1248.206558 " stroke="#e8e8e8" stroke-width="30" stroke-opacity="1" stroke-miterlimit="10"/></svg>